<?xml version="1.0" standalone="no"?>
<!DOCTYPE svg PUBLIC "-//W3C//DTD SVG 20010904//EN"
 "http://www.w3.org/TR/2001/REC-SVG-20010904/DTD/svg10.dtd">
<svg version="1.0" xmlns="http://www.w3.org/2000/svg"
 width="300.000000pt" height="300.000000pt" viewBox="0 0 300.000000 300.000000"
 preserveAspectRatio="xMidYMid meet">
<metadata>
Created by potrace 1.11, written by Peter Selinger 2001-2013
</metadata>
<g transform="translate(0.000000,300.000000) scale(0.100000,-0.100000)"
fill="#000000" stroke="none">
<path d="M669 2996 c-2 -2 -21 -7 -43 -10 -21 -4 -42 -9 -47 -12 -5 -3 -20 -7
-33 -10 -76 -14 -232 -109 -317 -193 -103 -103 -171 -227 -209 -376 -19 -77
-20 -108 -17 -910 2 -456 6 -841 9 -855 23 -103 68 -208 129 -297 41 -60 131
-150 193 -192 46 -32 160 -92 180 -95 6 -1 16 -4 21 -8 6 -3 42 -13 82 -22 63
-14 172 -16 891 -16 l820 1 83 23 c108 31 149 48 232 102 97 63 183 151 244
251 45 72 62 114 89 213 l22 85 -2 840 c-1 462 -4 850 -8 861 -3 12 -11 37
-16 55 -79 278 -312 494 -597 554 -58 12 -206 15 -886 15 -449 0 -818 -2 -820
-4z"/>
</g>
</svg>
